<?xml version="1.0" encoding="UTF-8"?>
<svg id="Layer_2" data-name="Layer 2" xmlns="http://www.w3.org/2000/svg" viewBox="0 0 318.2 318.2">
  <defs>
    <style>
      .cls-1 {
        fill: none;
        stroke: #000;
        stroke-miterlimit: 10;
        stroke-width: 3px;
      }
    </style>
  </defs>
  <g id="exportable">
    <g>
      <polygon class="cls-1" points="282.53 245.73 234.12 197.32 253.35 164.02 277.79 164.02 277.79 184.58 309.58 159.07 277.79 133.56 277.79 154.11 253.31 154.11 234.12 120.88 282.53 72.47 306.17 96.11 316.51 1.69 222.09 12.03 245.73 35.67 206.33 75.07 164.05 75.07 164.05 40.44 184.61 40.44 159.1 8.65 133.59 40.44 154.15 40.44 154.15 75.07 111.88 75.07 72.47 35.67 96.11 12.03 1.69 1.69 12.03 96.11 35.67 72.47 84.16 120.96 64.98 154.18 40.47 154.18 40.47 133.62 8.69 159.13 40.47 184.64 40.47 164.09 65.01 164.09 84.16 197.24 35.67 245.73 12.03 222.09 1.69 316.51 96.11 306.17 72.47 282.53 111.88 243.13 154.21 243.13 154.21 277.76 133.65 277.76 159.16 309.55 184.67 277.76 164.12 277.76 164.12 243.13 206.33 243.13 245.73 282.53 222.09 306.17 316.51 316.51 306.17 222.09 282.53 245.73"/>
      <polygon class="cls-1" points="207.68 75.07 110.65 75.07 62.14 159.1 110.65 243.13 207.68 243.13 256.19 159.1 207.68 75.07"/>
      <g>
        <polygon class="cls-1" points="151.04 189.75 172.54 157.74 144.52 130.73 124.32 163.68 151.04 189.75"/>
        <polyline class="cls-1" points="151.04 189.75 172.54 186.85 194 154.02 194 154.02 166.54 128.45 144.52 130.73"/>
        <line class="cls-1" x1="172.54" y1="157.74" x2="194" y2="154.02"/>
      </g>
    </g>
  </g>
</svg>