<?xml version="1.0" encoding="UTF-8"?>
<svg id="Layer_2" data-name="Layer 2" xmlns="http://www.w3.org/2000/svg" viewBox="0 0 1085.04 289.07">
  <g id="exportable">
    <g>
      <path d="M1043.01,74.52v19.53c0,.87-.13,1.72-.36,2.54.63-.45,1.24-.97,1.83-1.57,2.47-2.48,3.71-5.24,3.71-8.28v-21.24c-.74.48-1.45,1.07-2.12,1.78-2.04,2.17-3.06,4.58-3.06,7.24Z"/>
      <path d="M1081.32,10.11c-2.47-2.48-5.22-3.73-8.24-3.73h-68.03c-3.03,0-5.78,1.24-8.25,3.73-2.47,2.49-3.71,5.25-3.71,8.28v68.34c0,3.04-1.18,5.8-3.52,8.28-2.35,2.49-5.04,3.73-8.08,3.73h-22.37c-1.69,0-3.29-.4-4.81-1.17.54,1.31,1.38,2.54,2.55,3.71,2.17,2.17,4.58,3.26,7.23,3.26h19.53c2.65,0,5-1.08,7.05-3.26,2.05-2.17,3.07-4.58,3.07-7.23v-59.69c0-2.65,1.08-5.06,3.24-7.24,2.16-2.17,4.56-3.25,7.21-3.25h59.42c2.64,0,5.04,1.08,7.2,3.25,2.16,2.17,3.25,4.58,3.25,7.24v17.94c2.64-.23,5.06-1.38,7.26-3.47,2.47-2.34,3.72-5.04,3.72-8.08v-22.37c0-3.04-1.24-5.8-3.72-8.28Z"/>
      <path d="M983.62,265.16h-59.69c-.43,0-.85-.04-1.27-.09,2.16-.28,4.15-1.26,5.97-2.98,2.17-2.05,3.26-4.52,3.26-7.42V74.52c0-2.65-1.08-5.06-3.26-7.24-1.7-1.7-3.54-2.73-5.54-3.1l.04-.19c.26.02.53.03.8.03h19.17c1.44,0,2.77.27,4,.81v-.46c0-3.04-1.18-5.8-3.52-8.29-2.35-2.48-5.18-3.73-8.49-3.73h-21.95c-.31,0-.61-.01-.91-.04l-.04.21c2.28.42,4.4,1.61,6.34,3.55,2.49,2.49,3.73,5.25,3.73,8.29v206.28c0,3.31-1.24,6.15-3.73,8.49-2.08,1.97-4.37,3.1-6.84,3.42.48.06.96.1,1.45.1h68.34c3.03,0,5.73-1.17,8.08-3.52,2.34-2.34,3.52-5.18,3.52-8.49v-12.23c-.51,1.35-1.31,2.57-2.41,3.67-2.05,2.05-4.4,3.07-7.05,3.07Z"/>
      <path d="M1013.97,98.75c-3.03,0-5.78,1.18-8.25,3.52-2.47,2.35-3.71,5.04-3.71,8.08v148.07c.44-1.16.67-2.4.67-3.74V114.67c0-2.65,1.08-5,3.24-7.05,2.16-2.05,4.56-3.07,7.21-3.07h19.44c2.64,0,5.04-1.08,7.2-3.26,1.45-1.46,2.4-3.02,2.88-4.7-1.98,1.44-4.12,2.16-6.42,2.16h-22.26Z"/>
      <path d="M959.76,95.02c1.1,1.1,2.26,1.95,3.47,2.56-.46-1.12-.71-2.3-.71-3.53v-19.53c0-2.65-1.03-5.06-3.07-7.24-1.03-1.09-2.17-1.91-3.42-2.45v21.9c0,3.04,1.24,5.8,3.73,8.28Z"/>
      <path d="M1059.74,52.36c-3.03,0-5.71,1.24-8.05,3.73-2.33,2.49-3.5,5.25-3.5,8.29v1.13c1.5-.97,3.13-1.47,4.9-1.47h19.45c2.64,0,5.04-1.02,7.2-3.07,2.16-2.05,3.25-4.4,3.25-7.05v-1.59c-.32.03-.65.05-.98.05h-22.27Z"/>
      <path d="M912.11,46.96h-14.97c-2.53,0-4.7-.9-6.49-2.69-1.8-1.79-2.69-3.85-2.69-6.18v-17.11c0-2.32-.95-4.43-2.85-6.34-.31-.31-.63-.59-.96-.85.7,1.46,1.06,2.99,1.06,4.6v22.37c0,3.04,1.17,5.73,3.52,8.08,2.34,2.35,5.18,3.52,8.49,3.52h21.95c.45,0,.9.03,1.35.08l.09-.18c-2.47-.32-4.74-1.46-6.83-3.43-.64-.6-1.19-1.23-1.67-1.88Z"/>
      <path d="M895.34,14.65c1.79,1.9,2.69,4.01,2.69,6.34v17.11c0,2.33.95,4.38,2.85,6.18.43.41.87.76,1.32,1.07-.71-1.43-1.08-2.95-1.08-4.58v-22.37c0-3.04-1.18-5.8-3.52-8.28-2.35-2.48-5.18-3.73-8.49-3.73h-24.85c3.04,0,5.8,1.24,8.28,3.73.55.55,1.03,1.11,1.45,1.69h14.84c2.53,0,4.7.95,6.49,2.85Z"/>
      <path d="M913.93,46.96c.35,0,.69.02,1.03.06l.07-.13c-1.38-.18-2.68-.7-3.9-1.55.28.55.6,1.1.98,1.62h1.82Z"/>
      <path d="M878.77,11.8c1.94,0,3.73.67,5.38,2-.33-.68-.73-1.35-1.21-2h-4.16Z"/>
      <path d="M674.62,103.6h19.63c2.71,0,5.18-1.11,7.41-3.33,2.22-2.22,3.33-4.69,3.33-7.41V31.76c0-2.71-1.11-5.18-3.33-7.41-1.14-1.14-2.36-1.95-3.64-2.5v64.89c0,3.04-1.24,5.8-3.73,8.28-2.49,2.49-5.25,3.73-8.28,3.73h-20.21c.36.52.77,1.03,1.24,1.52,2.09,2.22,4.63,3.33,7.59,3.33Z"/>
      <path d="M790.88,31.76v20.6h3.22v-28.07s-.05.04-.07.07c-2.1,2.22-3.15,4.69-3.15,7.41Z"/>
      <path d="M828.84,106.75c2.09,2.1,3.15,4.51,3.15,7.22v20c0,2.72,1.05,5.18,3.15,7.41,2.09,2.22,4.63,3.33,7.59,3.33h8.9c-3.12-.11-5.8-1.34-8.03-3.71-2.35-2.48-3.52-5.24-3.52-8.28v-22.37c0-3.04-1.18-5.73-3.52-8.08-2.35-2.34-5.18-3.52-8.49-3.52h-12.84v4.85h6.02c2.96,0,5.49,1.05,7.59,3.15Z"/>
      <path d="M886.05,270.65v-113.91c0-3.31-1.18-6.14-3.52-8.49-2.35-2.34-5.18-3.52-8.49-3.52h-11.21c2.75.11,5.12,1.15,7.11,3.13,2.09,2.1,3.15,4.63,3.15,7.59v101.83c0,2.96,1.11,5.5,3.33,7.59,1.86,1.76,3.9,2.77,6.11,3.06-.43.05-.86.09-1.29.09h-61.1c-1.77,0-3.41-.45-4.91-1.34v3.97c0,3.31,1.17,6.15,3.52,8.49,2.34,2.35,5.04,3.52,8.08,3.52h68.34c.49,0,.97-.04,1.45-.1-2.47-.32-4.75-1.45-6.83-3.42-2.49-2.34-3.73-5.18-3.73-8.49Z"/>
      <path d="M799.03,185.81h-61.1c-2.72,0-5.18,1.05-7.41,3.15-1.35,1.28-2.29,2.72-2.82,4.31,2.19-1.7,4.57-2.56,7.16-2.56h68.34c1.99,0,3.87.52,5.63,1.53-.55-1.19-1.35-2.28-2.4-3.28-2.22-2.09-4.69-3.15-7.41-3.15Z"/>
      <path d="M644.99,72.87c0-2.71,1.05-5.18,3.15-7.41,1.13-1.2,2.4-2.03,3.78-2.58-.34-2.46-1.54-4.72-3.61-6.8-2.1-2.1-4.4-3.3-6.89-3.63-2.67.33-5.01,1.53-6.99,3.63-2.35,2.49-3.52,5.25-3.52,8.29v172.31h9.12c3.04,0,5.8-1.17,8.28-3.52,1.9-1.8,3.07-3.88,3.52-6.25h-6.83V72.87Z"/>
      <path d="M655.73,268.01c-.46,0-.91-.03-1.35-.08,2.23-.27,4.28-1.29,6.16-3.06,2.22-2.1,3.33-4.63,3.33-7.59v-19.63c0-.33.02-.65.04-.96-3.26.03-6.05,1.2-8.37,3.51-2.35,2.35-3.52,5.18-3.52,8.49v21.95c0,3.31-1.24,6.15-3.73,8.49-2.1,1.98-4.4,3.12-6.89,3.43.49.06.99.09,1.5.09h67.93c3.31,0,6.14-1.17,8.49-3.52,2.34-2.34,3.52-5.18,3.52-8.49v-4.75c-1.85,1.41-3.98,2.12-6.4,2.12h-60.73Z"/>
      <path d="M794.1,18.39c0-3.04,1.17-5.8,3.52-8.28,2.34-2.48,5.18-3.73,8.49-3.73h-117.22c-.49,0-.97.04-1.45.11,2.47.34,4.75,1.53,6.84,3.62,2.49,2.49,3.73,5.25,3.73,8.28v2.63h96.09v-2.63Z"/>
      <path d="M704.98,216.17v-19.63c0-2.96-1.11-5.49-3.33-7.59-2.22-2.09-4.69-3.15-7.41-3.15h-19.63c-2.96,0-5.5,1.05-7.59,3.15-.55.55-1.03,1.14-1.43,1.75h20.41c3.04,0,5.8,1.18,8.28,3.52,2.49,2.35,3.73,5.18,3.73,8.49v21.95c0,.53-.04,1.04-.11,1.54,1.32-.52,2.57-1.33,3.74-2.44,2.22-2.1,3.33-4.63,3.33-7.59Z"/>
      <path d="M696.83,21.02c-.44,0-.87.04-1.3.1.85.12,1.67.38,2.48.73v-.83h-1.18Z"/>
      <path d="M686,236.68c3.04,0,5.8-1.17,8.28-3.52,2.09-1.97,3.29-4.29,3.62-6.95-1.17.46-2.39.7-3.66.7h-19.63c-2.96,0-5.5,1.05-7.59,3.15-1.87,1.87-2.9,4.08-3.1,6.63.04,0,.08,0,.13,0h21.95Z"/>
      <path d="M811.5,194.22c-.85-.8-1.74-1.46-2.66-1.99.61,1.32.93,2.75.93,4.31v60.73c0,2.96,1.05,5.5,3.15,7.59.73.73,1.5,1.33,2.31,1.81v-63.96c0-3.31-1.24-6.14-3.73-8.49Z"/>
      <path d="M726.59,56.08c-2.49,2.49-3.73,5.25-3.73,8.29v68.34c0,3.04,1.24,5.8,3.73,8.28,2.49,2.49,5.24,3.73,8.28,3.73h68.34c3.04,0,5.8-1.24,8.28-3.73,2.49-2.48,3.73-5.24,3.73-8.28v-29.11h-5.46v30.36c0,2.72-1.11,5.18-3.33,7.41-2.22,2.22-4.69,3.33-7.41,3.33h-61.1c-2.72,0-5.18-1.11-7.41-3.33-2.22-2.22-3.33-4.69-3.33-7.41v-61.1c0-2.71,1.11-5.18,3.33-7.41,2.22-2.22,4.69-3.33,7.41-3.33h52.95v-9.77h-56.01c-3.04,0-5.8,1.24-8.28,3.73Z"/>
      <path d="M801.62,21.02h-7.52v3.27c2.08-2.17,4.59-3.27,7.52-3.27Z"/>
      <path d="M722.86,202.71v63.18c.41-.31.81-.64,1.19-1.03,2.09-2.1,3.15-4.63,3.15-7.59v-60.73c0-1.16.18-2.25.52-3.28-.38.3-.76.61-1.12.96-2.49,2.35-3.73,5.18-3.73,8.49Z"/>
      <path d="M652.03,86.74c0,3.04,1.17,5.8,3.52,8.28,2.34,2.49,5.18,3.73,8.49,3.73h1.74c-1.27-1.81-1.91-3.77-1.91-5.89v-20c0-2.71-1.11-5.18-3.33-7.41-1.88-1.88-3.93-2.95-6.16-3.24-.87.11-1.68.35-2.47.66.07.49.12.98.12,1.49v22.37Z"/>
      <path d="M862.84,144.73c-.16,0-.32-.02-.48-.02h-10.72c.15,0,.3.02.46.02h10.75Z"/>
      <path d="M655.55,194.22c-2.35,2.35-3.52,5.18-3.52,8.49v21.95c0,.77-.07,1.52-.21,2.24h1.32c2.71,0,5.18-1.05,7.41-3.15,2.22-2.1,3.33-4.63,3.33-7.59v-19.63c0-2.18.57-4.13,1.71-5.84h-1.54c-3.31,0-6.15,1.18-8.49,3.52Z"/>
      <path d="M298.23,224.46c0,1.42-.24,2.75-.7,4h3c2.77,0,5.29-1.07,7.56-3.21,2.27-2.14,3.4-4.73,3.4-7.75v-119.96c-1.37-2.29-2.06-4.73-2.06-7.33v-25.07c-.39-.53-.83-1.05-1.34-1.56-2.27-2.27-4.79-3.4-7.56-3.4h-3.1c.52,1.28.8,2.61.8,4v160.3Z"/>
      <path d="M311.5,97.52c.76,1.27,1.71,2.49,2.89,3.66,3.3,3.3,6.96,4.95,11,4.95h64.54v-7.6h-54.84c-3.04,0-5.8-1.24-8.28-3.73-2.49-2.48-3.73-5.24-3.73-8.28v-22.37c0-3.04,1.24-5.8,3.73-8.29,2.49-2.48,5.24-3.73,8.28-3.73h71.24c-3.31,0-6.15,1.24-8.49,3.73-2.35,2.49-3.52,5.25-3.52,8.29v24.68h8.57c.38,0,.76.03,1.14.06v-28.4c0-4.03,1.55-7.7,4.67-11,3.11-3.3,6.87-4.95,11.27-4.95h-94.59c-4.04,0-7.7,1.65-11,4.95-3.3,3.3-4.95,6.97-4.95,11v4.63c1.37,1.85,2.06,3.85,2.06,6v26.4Z"/>
      <path d="M467.41,18.18h173.11c.45,0,.89.04,1.32.1-2.26.31-4.34,1.4-6.24,3.3-2.27,2.27-3.4,4.79-3.4,7.56v20.42c0,.89-.12,1.75-.35,2.58h5.61c3.31,0,6.14-1.17,8.49-3.52,2.34-2.34,3.52-5.04,3.52-8.08v-22.37c0-3.04,1.24-5.8,3.73-8.29,2.08-2.08,4.36-3.28,6.84-3.62-.48-.06-.96-.11-1.45-.11h-194.93c2.5,2.97,3.75,6.21,3.75,9.73v2.29Z"/>
      <path d="M269.52,49.57v-20.42c0-2.77-1.13-5.29-3.4-7.56-1.92-1.92-4.02-3.01-6.29-3.31.45-.05.9-.09,1.37-.09h177.96v-2.29c0-3.52,1.25-6.76,3.75-9.73h-199.77c-.51,0-1.01.04-1.5.1,2.49.33,4.79,1.53,6.89,3.63,2.49,2.49,3.73,5.25,3.73,8.29v22.37c0,3.04,1.17,5.73,3.52,8.08,2.34,2.35,5.18,3.52,8.49,3.52h5.6c-.22-.83-.34-1.68-.34-2.58Z"/>
      <path d="M326.81,232.95c-2.49-2.34-3.73-5.18-3.73-8.49v-67.93c0-3.31,1.24-6.14,3.73-8.49,2.49-2.34,5.24-3.52,8.28-3.52h54.84v-10.14h-61.37c-3.71,0-7.08,1.44-10.11,4.3-3.03,2.87-4.55,6.32-4.55,10.36v82.91c0,4.04,1.52,7.5,4.55,10.36,3.03,2.87,6.4,4.3,10.11,4.3h86.96c-4.04,0-7.5-1.43-10.36-4.3-1.73-1.73-2.93-3.68-3.62-5.84h-66.44c-3.04,0-5.8-1.17-8.28-3.52Z"/>
      <path d="M394.33,224.46c0,3.31,1.17,6.15,3.52,8.49,1.04,1.04,2.17,1.83,3.4,2.41-.25-1.09-.39-2.22-.39-3.41v-77.72h-6.53v70.23Z"/>
      <path d="M438.98,270.43h-177.78c-.47,0-.92-.03-1.37-.09,2.28-.28,4.38-1.32,6.29-3.13,2.27-2.14,3.4-4.73,3.4-7.75v-20.04c0-1.04.14-2.02.39-2.95h-5.64c-3.31,0-6.15,1.18-8.49,3.52-2.35,2.35-3.52,5.18-3.52,8.49v21.95c0,3.31-1.24,6.15-3.73,8.49-2.1,1.98-4.4,3.12-6.89,3.43.49.06.99.09,1.5.09h198.74c-1.93-2.64-2.9-5.65-2.9-9.04v-2.97Z"/>
      <path d="M483.2,217.49c0,2.88,1.04,5.36,3.1,7.44,0-.16-.02-.31-.02-.48V64.16c0-.09.01-.17.01-.26-2.06,2.18-3.1,4.59-3.1,7.23v146.36Z"/>
      <path d="M593.44,267.22c1.81,1.81,3.94,2.85,6.38,3.13-.42.05-.84.09-1.27.09h-131.14v2.97c0,3.39-.97,6.4-2.9,9.04h148.1c.47,0,.93-.04,1.39-.09-2.67-.31-5.01-1.44-6.99-3.43-2.35-2.34-3.52-5.18-3.52-8.49v-33.97h-13.27v23c0,3.02,1.07,5.61,3.21,7.75Z"/>
      <path d="M272.55,55.87c.83.83,1.52,1.7,2.07,2.6,1.73,1.12,3.68,1.69,5.87,1.69h16.95c-.62-1.51-1.59-2.94-2.93-4.29-2.49-2.48-5.25-3.73-8.28-3.73h-16.35c.2.75.49,1.48.87,2.18.62.45,1.23.96,1.81,1.55Z"/>
      <path d="M406.34,236.47c-1.85,0-3.54-.38-5.09-1.11.09.38.18.75.29,1.11h4.8Z"/>
      <path d="M274.88,229.98c-.59,1.06-1.36,2.05-2.33,2.96-.6.57-1.22,1.07-1.86,1.5-.33.64-.59,1.32-.78,2.02h16.31c3.04,0,5.8-1.17,8.28-3.52,1.42-1.34,2.42-2.84,3.03-4.49h-17.04c-2.08,0-3.95.52-5.61,1.53Z"/>
      <path d="M498.29,236.47h91.93v-8.01h-96.06c-2.78,0-5.29-1.07-7.56-3.21-.11-.1-.2-.21-.3-.31.12,3.11,1.34,5.79,3.7,8.02,2.49,2.35,5.24,3.52,8.28,3.52Z"/>
      <path d="M615.51,52.15c-.51,0-1.01.04-1.5.1-.46-.06-.92-.1-1.39-.1h-114.32c-3.04,0-5.8,1.24-8.28,3.73-2.41,2.41-3.64,5.09-3.71,8.02.1-.11.2-.22.31-.33,2.27-2.27,4.79-3.4,7.56-3.4h104.38c.43,0,.85.04,1.27.09.45-.05.9-.09,1.37-.09h20.04c3.03,0,5.61-1.07,7.75-3.21,1.45-1.45,2.4-3.05,2.87-4.8h-16.35Z"/>
      <path d="M272.74,231.67c.67-.67,1.39-1.22,2.15-1.68.93-1.66,1.4-3.51,1.4-5.53V64.16c0-2.02-.56-3.91-1.66-5.69-.66-.43-1.29-.93-1.88-1.53-.83-.83-1.49-1.7-2-2.62-2-1.45-4.15-2.18-6.47-2.18h-21.95c-3.26,0-6.05-1.13-8.37-3.4l-.2-.2c-2.3-2.33-3.44-4.99-3.44-8v-22.37c0-3.04-1.24-5.8-3.73-8.29-2.1-2.1-4.4-3.3-6.88-3.62h-.01c-.46-.06-.92-.1-1.39-.1H12.01c-3.31,0-6.15,1.24-8.49,3.73C1.17,12.38,0,15.14,0,18.18v252.25c0,3.31,1.17,6.15,3.52,8.49,2.34,2.35,5.18,3.52,8.49,3.52h206.28c.45,0,.9-.04,1.34-.09h.05c2.49-.31,4.79-1.45,6.89-3.43,2.49-2.34,3.73-5.18,3.73-8.49v-21.95c0-3.25,1.13-6.03,3.39-8.36l.32-.32c2.31-2.22,5.08-3.34,8.31-3.34h21.95c2.3,0,4.44-.68,6.42-2.02.51-.99,1.19-1.92,2.05-2.78ZM264.58,217.67c0,3.03-1.14,5.63-3.41,7.77-2.27,2.15-4.8,3.22-7.58,3.22h-20.09c-2.95,0-5.49,1.02-7.6,3.06l-.29.29c-2.07,2.13-3.1,4.67-3.1,7.65v20.09c0,3.03-1.14,5.63-3.41,7.77-1.92,1.82-4.03,2.85-6.31,3.14h-.05c-.4.05-.81.09-1.23.09H22.69c-3.03,0-5.63-1.07-7.77-3.22-2.15-2.15-3.22-4.74-3.22-7.77V28.86c0-2.78,1.07-5.31,3.22-7.58,2.14-2.27,4.74-3.41,7.77-3.41h188.81c.43,0,.85.04,1.27.09h.01c2.28.3,4.38,1.4,6.3,3.32,2.27,2.28,3.41,4.8,3.41,7.58v20.47c0,2.75,1.05,5.19,3.15,7.32l.18.18c2.12,2.08,4.68,3.11,7.66,3.11h20.09c2.78,0,5.31,1.14,7.58,3.41,2.27,2.28,3.41,4.8,3.41,7.58v146.73Z"/>
      <path d="M178.52,35.4h-80.76c-3.59,0-6.85,1.47-9.79,4.4-2.94,2.94-4.4,6.2-4.4,9.79v189.42c0,3.91,1.47,7.26,4.4,10.03,2.94,2.78,6.19,4.16,9.79,4.16h80.76c3.59,0,6.85-1.38,9.79-4.16,2.94-2.77,4.4-6.12,4.4-10.03V49.6c0-3.59-1.47-6.85-4.4-9.79-2.94-2.94-6.2-4.4-9.79-4.4ZM184.32,224.45c0,3.31-1.24,6.15-3.73,8.49-2.49,2.35-5.25,3.52-8.28,3.52h-68.34c-3.04,0-5.8-1.17-8.28-3.52-2.49-2.34-3.73-5.18-3.73-8.49V64.16c0-3.04,1.24-5.8,3.73-8.29,2.49-2.48,5.24-3.73,8.28-3.73h68.34c3.04,0,5.8,1.24,8.28,3.73,2.49,2.49,3.73,5.25,3.73,8.29v160.3Z"/>
      <path d="M437.18,50.06c-2.35,2.35-5.18,3.52-8.49,3.52h8.19c1.15-1.81,1.87-3.75,2.14-5.83-.5.8-1.11,1.57-1.84,2.31Z"/>
      <path d="M428.54,235.58c3.31,0,6.14,1.18,8.49,3.52.68.68,1.25,1.41,1.74,2.18-.31-2.06-1-3.96-2.06-5.7h-8.17Z"/>
      <polygon points="389.93 154.23 390.16 154.23 394.33 154.23 394.33 144.62 394.33 144.54 394.23 144.51 389.93 144.51 389.93 154.09 389.93 154.23"/>
      <polygon points="394.33 98.53 394.33 98.38 394.33 88.83 390.14 88.83 390 88.83 389.93 88.97 389.93 98.54 394.23 98.54 394.33 98.53"/>
      <rect x="389.93" y="106.14" width="4.46" height="28.23"/>
      <path d="M411.79,102.06c2.49,2.35,3.73,5.04,3.73,8.08v22.37c0,3.04-1.24,5.8-3.73,8.28-2.49,2.49-5.25,3.73-8.28,3.73h-2.65v9.71h2.04c4.32,0,8.25-1.77,11.78-5.3,3.53-3.53,5.3-7.46,5.3-11.78v-31.81c0-4.32-1.77-8.15-5.3-11.49-3.22-3.04-6.77-4.68-10.65-4.95v9.68c2.83.13,5.42,1.29,7.76,3.49Z"/>
      <path d="M404.03,106.13v-7.57c-.17,0-.35-.03-.52-.03h-8.97s-.1,0-.1,0l-.04.1v7.5h9.64Z"/>
      <polygon points="400.86 134.4 400.74 134.37 394.39 134.37 394.39 144.42 394.39 144.52 394.55 144.52 400.86 144.52 400.86 134.5 400.86 134.4"/>
      <path d="M450.6,6.24h.64c.36-.05.72-.08,1.08-.08h11.35c-.38-.46-.79-.91-1.24-1.35-2.6-2.6-8.01-4.64-8.49-4.73s-.48-.12-1.09-.04c-.61.08-6.04,2.11-8.7,4.77-.44.44-.85.89-1.24,1.35h6.5c.4,0,.79.03,1.18.08Z"/>
      <path d="M440.7,19.61c0-.49.04-.96.11-1.44h-1.64v27.62c0,.66-.06,1.31-.14,1.95,1.11-1.76,1.68-3.68,1.68-5.77v-22.37Z"/>
      <path d="M461.83,19.61v22.37c0,3.04-1.24,5.73-3.73,8.08-2.49,2.35-5.25,3.52-8.28,3.52h-12.93c-.67,1.05-1.46,2.06-2.42,3.02-3.14,3.14-6.92,4.71-11.35,4.71h28.25c4.06,0,7.75-1.57,11.08-4.71,3.32-3.13,4.98-6.73,4.98-10.8v-27.62h-5.69c.06.47.11.95.11,1.44Z"/>
      <path d="M450.62,18.25h.58c.32-.05.65-.07.99-.07h9.53c-.33-2.48-1.53-4.76-3.62-6.85-1.95-1.94-5.99-3.47-6.35-3.54-.35-.07-.36-.09-.82-.03-.45.06-4.52,1.58-6.51,3.57-2.09,2.09-3.29,4.37-3.62,6.85h8.73c.36,0,.72.03,1.08.07Z"/>
      <path d="M453.69,282.44h-11.81c.61.83,1.31,1.63,2.12,2.39,1.45,1.37,3.71,2.63,5.08,3.45,1.37.82,5,1.14,7.74.27,2.74-.87,3.97-2.2,5.58-3.72.8-.76,1.5-1.56,2.12-2.39h-10.82Z"/>
      <path d="M440.6,270.43c-.02-.29-.04-.59-.04-.89v-21.95c0-2.35-.6-4.45-1.78-6.31.13.84.21,1.69.21,2.58v26.58h1.62Z"/>
      <path d="M457.95,239.1c2.49,2.35,3.73,5.18,3.73,8.49v21.95c0,.3-.02.6-.04.89h5.78v-26.58c0-4.46-1.67-8.27-5.02-11.43-3.35-3.15-7.06-4.74-11.15-4.74h-28.43c4.46,0,8.27,1.58,11.43,4.74.98.99,1.79,2.04,2.47,3.15h12.96c3.04,0,5.8,1.18,8.28,3.52Z"/>
      <path d="M448.16,270.43h-7.57c.21,2.93,1.43,5.47,3.69,7.6,1.08,1.02,2.76,1.95,3.78,2.56s3.71.85,5.75.2c2.04-.65,2.95-1.63,4.14-2.76,2.26-2.13,3.48-4.67,3.69-7.6h-13.47Z"/>
    </g>
  </g>
</svg>