<?xml version="1.0" encoding="UTF-8"?>
<svg id="Layer_2" data-name="Layer 2" xmlns="http://www.w3.org/2000/svg" viewBox="0 0 565.95 317.81">
  <defs>
    <style>
      .cls-1 {
        fill: none;
        stroke: #000;
        stroke-miterlimit: 10;
        stroke-width: 3px;
      }
    </style>
  </defs>
  <g id="exportable">
    <g>
      <rect class="cls-1" x="2.26" y="1.5" width="37.38" height="37.38"/>
      <rect class="cls-1" x="45.99" y="1.5" width="37.38" height="37.38"/>
      <rect class="cls-1" x="89.73" y="1.5" width="37.38" height="37.38"/>
      <rect class="cls-1" x="133.46" y="1.5" width="37.38" height="37.38"/>
      <rect class="cls-1" x="177.19" y="1.5" width="37.38" height="37.38"/>
      <rect class="cls-1" x="220.93" y="1.5" width="37.38" height="37.38"/>
      <rect class="cls-1" x="264.66" y="1.5" width="37.38" height="37.38"/>
      <rect class="cls-1" x="308.4" y="1.5" width="37.38" height="37.38"/>
      <rect class="cls-1" x="352.13" y="1.5" width="37.38" height="37.38"/>
      <rect class="cls-1" x="395.86" y="1.5" width="37.38" height="37.38"/>
      <rect class="cls-1" x="439.6" y="1.5" width="37.38" height="37.38"/>
      <rect class="cls-1" x="483.33" y="1.5" width="37.38" height="37.38"/>
      <rect class="cls-1" x="527.06" y="1.5" width="37.38" height="37.38"/>
      <rect class="cls-1" x="1.5" y="47.74" width="37.38" height="37.38"/>
      <rect class="cls-1" x="45.3" y="47.74" width="37.38" height="37.38"/>
      <rect class="cls-1" x="89.09" y="47.74" width="37.38" height="37.38"/>
      <rect class="cls-1" x="132.89" y="47.74" width="37.38" height="37.38"/>
      <rect class="cls-1" x="176.69" y="47.74" width="37.38" height="37.38"/>
      <rect class="cls-1" x="220.48" y="47.74" width="37.38" height="37.38"/>
      <rect class="cls-1" x="264.28" y="47.74" width="37.38" height="37.38"/>
      <rect class="cls-1" x="308.08" y="47.74" width="37.38" height="37.38"/>
      <rect class="cls-1" x="351.88" y="47.74" width="37.38" height="37.38"/>
      <rect class="cls-1" x="395.67" y="47.74" width="37.38" height="37.38"/>
      <rect class="cls-1" x="439.47" y="47.74" width="37.38" height="37.38"/>
      <rect class="cls-1" x="483.27" y="47.74" width="37.38" height="37.38"/>
      <rect class="cls-1" x="527.06" y="47.74" width="37.38" height="37.38"/>
      <rect class="cls-1" x="1.5" y="93.98" width="37.38" height="37.38"/>
      <rect class="cls-1" x="45.3" y="93.98" width="37.38" height="37.38"/>
      <rect class="cls-1" x="89.09" y="93.98" width="37.38" height="37.38"/>
      <rect class="cls-1" x="132.89" y="93.98" width="37.38" height="37.38"/>
      <rect class="cls-1" x="176.69" y="93.98" width="37.38" height="37.38"/>
      <rect class="cls-1" x="220.48" y="93.98" width="37.38" height="37.38"/>
      <rect class="cls-1" x="264.28" y="93.98" width="37.38" height="37.38"/>
      <rect class="cls-1" x="308.08" y="93.98" width="37.38" height="37.38"/>
      <rect class="cls-1" x="351.88" y="93.98" width="37.38" height="37.38"/>
      <rect class="cls-1" x="395.67" y="93.98" width="37.38" height="37.38"/>
      <rect class="cls-1" x="439.47" y="93.98" width="37.38" height="37.38"/>
      <rect class="cls-1" x="483.27" y="93.98" width="37.38" height="37.38"/>
      <rect class="cls-1" x="527.06" y="93.98" width="37.38" height="37.38"/>
      <rect class="cls-1" x="1.5" y="140.21" width="37.38" height="37.38"/>
      <rect class="cls-1" x="45.3" y="140.21" width="37.38" height="37.38"/>
      <rect class="cls-1" x="89.09" y="140.21" width="37.38" height="37.38"/>
      <rect class="cls-1" x="132.89" y="140.21" width="37.38" height="37.38"/>
      <rect class="cls-1" x="176.69" y="140.21" width="37.38" height="37.38"/>
      <rect class="cls-1" x="220.48" y="140.21" width="37.38" height="37.38"/>
      <rect class="cls-1" x="264.28" y="140.21" width="37.38" height="37.38"/>
      <rect class="cls-1" x="308.08" y="140.21" width="37.38" height="37.38"/>
      <rect class="cls-1" x="351.88" y="140.21" width="37.38" height="37.38"/>
      <rect class="cls-1" x="395.67" y="140.21" width="37.38" height="37.38"/>
      <rect class="cls-1" x="439.47" y="140.21" width="37.38" height="37.38"/>
      <rect class="cls-1" x="483.27" y="140.21" width="37.38" height="37.38"/>
      <rect class="cls-1" x="527.06" y="140.21" width="37.38" height="37.38"/>
      <rect class="cls-1" x="1.5" y="186.45" width="37.38" height="37.38"/>
      <rect class="cls-1" x="45.3" y="186.45" width="37.38" height="37.38"/>
      <rect class="cls-1" x="89.09" y="186.45" width="37.38" height="37.38"/>
      <rect class="cls-1" x="132.89" y="186.45" width="37.38" height="37.38"/>
      <rect class="cls-1" x="176.69" y="186.45" width="37.38" height="37.38"/>
      <rect class="cls-1" x="220.48" y="186.45" width="37.38" height="37.38"/>
      <rect class="cls-1" x="264.28" y="186.45" width="37.38" height="37.38"/>
      <rect class="cls-1" x="308.08" y="186.45" width="37.38" height="37.38"/>
      <rect class="cls-1" x="351.88" y="186.45" width="37.38" height="37.38"/>
      <rect class="cls-1" x="395.67" y="186.45" width="37.38" height="37.38"/>
      <rect class="cls-1" x="439.47" y="186.45" width="37.38" height="37.38"/>
      <rect class="cls-1" x="483.27" y="186.45" width="37.38" height="37.38"/>
      <rect class="cls-1" x="527.06" y="186.45" width="37.38" height="37.38"/>
      <rect class="cls-1" x="1.5" y="232.69" width="37.38" height="37.38"/>
      <rect class="cls-1" x="45.3" y="232.69" width="37.38" height="37.38"/>
      <rect class="cls-1" x="89.09" y="232.69" width="37.38" height="37.38"/>
      <rect class="cls-1" x="132.89" y="232.69" width="37.38" height="37.38"/>
      <rect class="cls-1" x="176.69" y="232.69" width="37.38" height="37.38"/>
      <rect class="cls-1" x="220.48" y="232.69" width="37.38" height="37.38"/>
      <rect class="cls-1" x="264.28" y="232.69" width="37.38" height="37.38"/>
      <rect class="cls-1" x="308.08" y="232.69" width="37.38" height="37.38"/>
      <rect class="cls-1" x="351.88" y="232.69" width="37.38" height="37.38"/>
      <rect class="cls-1" x="395.67" y="232.69" width="37.38" height="37.38"/>
      <rect class="cls-1" x="439.47" y="232.69" width="37.38" height="37.38"/>
      <rect class="cls-1" x="483.27" y="232.69" width="37.38" height="37.38"/>
      <rect class="cls-1" x="527.06" y="232.69" width="37.38" height="37.38"/>
      <rect class="cls-1" x="1.5" y="278.93" width="37.38" height="37.38"/>
      <rect class="cls-1" x="45.3" y="278.93" width="37.38" height="37.38"/>
      <rect class="cls-1" x="89.09" y="278.93" width="37.38" height="37.38"/>
      <rect class="cls-1" x="132.89" y="278.93" width="37.38" height="37.38"/>
      <rect class="cls-1" x="176.69" y="278.93" width="37.38" height="37.38"/>
      <rect class="cls-1" x="220.48" y="278.93" width="37.38" height="37.38"/>
      <rect class="cls-1" x="264.28" y="278.93" width="37.38" height="37.38"/>
      <rect class="cls-1" x="308.08" y="278.93" width="37.38" height="37.38"/>
      <rect class="cls-1" x="351.88" y="278.93" width="37.38" height="37.38"/>
      <rect class="cls-1" x="395.67" y="278.93" width="37.38" height="37.38"/>
      <rect class="cls-1" x="439.47" y="278.93" width="37.38" height="37.38"/>
      <rect class="cls-1" x="483.27" y="278.93" width="37.38" height="37.38"/>
      <rect class="cls-1" x="527.06" y="278.93" width="37.38" height="37.38"/>
    </g>
  </g>
</svg>